<?xml version="1.0" encoding="UTF-8" standalone="no"?>
<!-- Created with Inkscape (http://www.inkscape.org/) -->

<svg
   xmlns:dc="http://purl.org/dc/elements/1.1/"
   xmlns:cc="http://creativecommons.org/ns#"
   xmlns:rdf="http://www.w3.org/1999/02/22-rdf-syntax-ns#"
   xmlns:svg="http://www.w3.org/2000/svg"
   xmlns="http://www.w3.org/2000/svg"
   xmlns:sodipodi="http://sodipodi.sourceforge.net/DTD/sodipodi-0.dtd"
   xmlns:inkscape="http://www.inkscape.org/namespaces/inkscape"
   width="141.47839"
   height="145.01967"
   id="svg3166"
   version="1.1"
   inkscape:version="0.48.4 r9939"
   sodipodi:docname="jingjs.tshirt.light.background.svg"
   inkscape:export-filename="/home/troy/repo/jsconfcn/jsconfcn.github.com/images/t-shirts/jingjs.tshirt.png"
   inkscape:export-xdpi="96"
   inkscape:export-ydpi="96">
  <defs
     id="defs3168" />
  <sodipodi:namedview
     id="base"
     pagecolor="#ffffff"
     bordercolor="#666666"
     borderopacity="1.0"
     inkscape:pageopacity="0.0"
     inkscape:pageshadow="2"
     inkscape:zoom="5.12"
     inkscape:cx="6.4124662"
     inkscape:cy="87.112433"
     inkscape:document-units="px"
     inkscape:current-layer="layer1"
     showgrid="false"
     showguides="true"
     inkscape:guide-bbox="true"
     inkscape:window-width="1920"
     inkscape:window-height="1056"
     inkscape:window-x="0"
     inkscape:window-y="24"
     inkscape:window-maximized="1"
     fit-margin-top="0"
     fit-margin-left="0"
     fit-margin-right="0"
     fit-margin-bottom="0" />
  <metadata
     id="metadata3171">
    <rdf:RDF>
      <cc:Work
         rdf:about="">
        <dc:format>image/svg+xml</dc:format>
        <dc:type
           rdf:resource="http://purl.org/dc/dcmitype/StillImage" />
        <dc:title></dc:title>
      </cc:Work>
    </rdf:RDF>
  </metadata>
  <g
     inkscape:label="Layer 1"
     inkscape:groupmode="layer"
     id="layer1"
     transform="translate(-305.10907,-402.70242)">
    <path
       style="fill:#000000"
       d=""
       id="path4654"
       inkscape:connector-curvature="0" />
    <path
       style="fill:#ececec;fill-opacity:1"
       inkscape:connector-curvature="0"
       d="m 334.27848,480.51562 c 2.28811,-1.15585 5.21311,-0.86688 7.61917,-0.15922 0.59561,1.6689 0.67228,3.45576 0.90816,5.19543 9.24091,0.62509 18.52308,-0.21231 27.76397,0.45997 0.46589,2.55939 0.46589,5.18363 -0.0177,7.74302 -4.25777,0.44818 -8.53912,0.22998 -12.80869,0.25947 -16.13471,0.0177 -32.27531,-0.0354 -48.41003,0.0295 -1.20302,-0.0295 -2.43554,-0.0767 -3.5678,-0.51896 -0.77253,-2.15836 -0.78432,-4.62339 -0.17691,-6.81715 0.76074,-1.2443 2.5181,-0.80201 3.74471,-0.96713 8.00839,-0.0531 16.02856,0.22998 24.03105,-0.13564 0.28896,-1.69839 0.37742,-3.44396 0.91407,-5.08928 z"
       id="path5358-0-9-1-4" />
    <g
       id="g4987"
       transform="matrix(1.0023355,0,0,1.0023288,-0.96385796,-1.1963825)">
      <path
         id="path4887"
         d="m 383.30652,480.14689 c 1.0776,-0.24732 2.18463,-0.27087 3.28579,-0.29443 17.50063,0.053 34.99538,0.0412 52.49013,0.006 2.03742,0.0118 4.34571,0.22965 5.77662,1.87255 1.50157,1.51334 1.61934,3.76275 1.637,5.77073 -0.0589,17.68318 -0.0294,35.37225 -0.0118,53.06131 -0.006,1.96677 -0.35331,4.13962 -1.93143,5.49398 -1.44269,1.40146 -3.56844,1.53101 -5.47042,1.57223 -17.69496,-0.053 -35.38992,-0.0353 -53.08487,-0.0118 -2.01387,0 -4.26328,-0.3592 -5.60586,-2.03153 -1.52512,-1.67822 -1.43091,-4.09251 -1.47801,-6.21237 0.1001,-17.68318 0,-35.37225 0.0471,-53.05543 -0.14721,-2.73815 1.52513,-5.62941 4.34572,-6.17115 z"
         inkscape:connector-curvature="0"
         style="fill:#fd4646" />
      <path
         id="path4889"
         d="m 414.35072,499.93815 c 4.29272,-5.05822 12.47185,-5.49397 17.88927,-2.06686 2.96781,1.84899 4.15729,5.35265 4.28095,8.69732 -1.77833,0.15899 -3.59788,0.46519 -5.37621,0.10599 -1.53101,-1.46035 -1.96087,-4.02185 -4.08662,-4.82268 -2.74404,-0.88917 -6.45969,-0.50053 -8.05548,2.19641 -0.97749,1.57812 -0.0707,3.58021 1.46624,4.39871 4.33983,2.5615 9.6807,3.16802 13.67311,6.36547 4.33983,3.55666 3.7922,11.0645 -0.65951,14.29729 -3.43889,2.49084 -7.9436,2.99725 -12.06555,2.54384 -3.6862,-0.35331 -7.14275,-2.63805 -8.76209,-5.98272 -0.94216,-1.90788 -1.03638,-4.07485 -1.21304,-6.15349 1.84311,-0.12955 3.70976,-0.3592 5.54698,-0.0294 1.2248,1.7901 1.41913,4.31038 3.25045,5.65296 2.59683,1.35436 5.9415,1.23659 8.47356,-0.22376 2.33774,-1.28958 2.70282,-5.33499 0.14132,-6.58335 -4.38693,-2.26119 -9.6807,-2.64394 -13.57889,-5.85317 -3.69798,-2.97959 -4.06896,-9.03886 -0.92449,-12.54252 z"
         inkscape:connector-curvature="0"
         style="fill:#ececec;fill-opacity:1" />
      <path
         id="path4891"
         d="m 401.59033,496.4816 c 1.97853,-0.0648 3.96296,-0.053 5.9415,0.0471 0.2061,7.41362 0.0412,14.83314 0.11188,22.25266 0.0353,4.1985 -0.85972,9.16251 -4.7638,11.50613 -4.26917,2.46729 -10.85252,2.21408 -13.74377,-2.23763 -1.69,-2.31418 -2.09042,-5.22899 -2.13753,-8.02014 1.87255,0.0118 3.74509,0.0471 5.61175,0.14132 0.51819,1.63701 0.81261,3.433 1.87843,4.83447 1.3838,1.44857 4.08662,1.44268 5.41154,-0.0883 1.37791,-1.48979 1.50156,-3.6391 1.584,-5.55286 0.0883,-7.62562 -0.17665,-15.25712 0.106,-22.88273 z"
         inkscape:connector-curvature="0"
         style="fill:#ececec;fill-opacity:1" />
    </g>
    <path
       inkscape:connector-curvature="0"
       style="fill:#ececec;fill-opacity:1"
       d="m 319.72454,498.96794 c -2.06107,0.006 -4.13471,0.0737 -6.18103,0.34203 -0.57793,5.49619 -0.15164,11.03178 -0.29317,16.53975 0.0589,2.26452 -0.29992,4.62754 0.53748,6.79181 1.41533,0.54256 2.93591,0.49538 4.422,0.51305 3.94522,-0.0236 7.90379,-0.0497 11.84901,-0.0733 1.36225,0.0354 2.80532,-0.0497 4.05553,0.61078 0.54844,3.44985 0.20556,6.97121 0.3176,10.45644 -0.10024,1.66891 0.22242,3.76235 -1.24597,4.95948 -2.77168,0.50716 -5.59044,-0.28054 -8.37982,-0.26874 0.35383,2.7422 -0.1205,6.83645 3.00501,8.08665 3.72112,1.0497 7.9813,1.22746 11.5314,-0.48862 2.27632,-1.08509 3.02607,-3.74718 3.27375,-6.05888 0.49537,-5.69668 -0.31845,-11.4471 0.51305,-17.12609 5.8677,-0.28896 11.72258,-0.016 17.59028,-0.12215 0.97303,-0.10616 2.17519,0.008 2.88285,-0.80623 0.48358,-1.50378 0.38586,-3.13388 0.41533,-4.69074 -0.0885,-5.12466 0.0228,-10.2424 -0.0245,-15.36706 -0.13564,-0.97304 0.08,-2.34115 -0.92838,-2.90728 -1.31508,-0.45997 -2.73625,-0.35548 -4.1044,-0.3909 -11.01594,0.0708 -22.03912,7.8e-4 -33.05506,0.0245 -2.05812,0.0206 -4.11997,-0.0303 -6.18103,-0.0245 z m 10.55416,7.94006 c 4.6316,-0.0218 9.27192,0.10552 13.90121,0.0245 3.70344,0 7.41854,-0.0741 11.11608,0.24431 0.31255,2.60656 0.2932,5.24168 -0.0489,7.84233 -8.00839,0.38332 -16.02577,0.0648 -24.04005,0.17102 -3.06654,0.0177 -6.14393,0.0346 -9.21047,-0.19545 -0.27716,-2.59476 -0.28474,-5.19871 -0.0489,-7.79347 2.77315,-0.19903 5.55199,-0.28011 8.33095,-0.29317 z"
       id="path5366-6-5-9-7" />
    <path
       style="fill:#ececec;fill-opacity:1"
       inkscape:connector-curvature="0"
       d="m 355.15454,525.64682 c 2.54168,-0.82561 4.41698,1.71608 6.16845,3.12551 2.64195,2.74219 5.97975,4.97132 7.86096,8.34452 -0.4364,2.63604 -2.88963,4.46417 -4.94185,5.93846 -1.16174,0.87279 -2.34118,-0.22998 -3.155,-1.02021 -2.23503,-2.3058 -4.25187,-4.81211 -6.55767,-7.04713 -1.55686,-1.62763 -3.39088,-3.05475 -4.51725,-5.04211 0.81382,-2.17605 3.14321,-3.37319 5.14236,-4.29904 z"
       id="path5370-3-5-9-7" />
    <path
       style="fill:#ececec;fill-opacity:1"
       inkscape:connector-curvature="0"
       d="m 319.15809,526.14808 c 1.58634,-0.76074 3.27884,0.46587 4.68826,1.14995 1.29149,0.69587 3.23167,2.02273 2.0994,3.69164 -2.37067,3.85087 -5.78514,6.97637 -9.24679,9.8424 -1.63352,1.13817 -3.30832,2.76579 -5.42541,2.69502 -2.03453,-0.8197 -3.38499,-2.86014 -4.18701,-4.818 -0.59562,-1.12047 0.51305,-2.00505 1.22662,-2.70681 2.01093,-1.72788 4.1988,-3.24935 6.03282,-5.17184 1.60994,-1.55685 2.9309,-3.43806 4.81211,-4.68236 z"
       id="path5372-0-5-1-4" />
    <path
       d="m 397.10923,404.07615 c 5.64437,7e-5 10.07939,3.26719 13.30474,9.80139 1.16784,2.58595 1.77951,4.56012 1.83525,5.92254 l 0.12509,0 c 0.97309,-4.50441 2.73877,-8.24423 5.29686,-11.21946 3.00294,-3.00291 6.38129,-4.5044 10.13513,-4.50447 5.81121,7e-5 10.46857,3.11426 13.97208,9.3426 0.88968,2.30789 1.33459,4.4767 1.33467,6.50646 -8e-5,6.95136 -2.89176,13.58293 -8.67529,19.89471 l -22.06345,26.48458 -0.25033,0 -23.43987,-28.73681 c -4.67135,-5.70006 -7.00695,-11.58089 -7.00695,-17.64248 0,-5.86688 2.7666,-10.52427 8.29995,-13.9722 2.3356,-1.25117 4.71295,-1.87679 7.13212,-1.87686"
       style="font-size:85.01374054px;font-style:normal;font-variant:normal;font-weight:bold;font-stretch:normal;line-height:125%;letter-spacing:0px;word-spacing:0px;fill:#fd4646;fill-opacity:1;stroke:#fd4646;stroke-width:2.62210917;stroke-linecap:round;stroke-linejoin:round;stroke-miterlimit:4;stroke-opacity:1;font-family:Collator;-inkscape-font-specification:Collator Bold"
       id="path6322-8-6-4-3-1"
       inkscape:connector-curvature="0" />
    <g
       id="text3037-6"
       style="font-size:69.39400482px;font-style:normal;font-variant:normal;font-weight:normal;font-stretch:normal;line-height:125%;letter-spacing:0px;word-spacing:0px;fill:#ececec;fill-opacity:1;stroke:none;font-family:HanWangHeiHeavy;-inkscape-font-specification:HanWangHeiHeavy"
       transform="matrix(1.0363771,0,0,1.0216223,2376.4778,2.8609076)">
      <path
         style="fill:#ececec;fill-opacity:1"
         inkscape:connector-curvature="0"
         id="path3064-0"
         d="m -1964.7118,393.41202 c 0,-1.3553 0.6777,-2.03298 2.033,-2.03303 l 3.9983,0 c 1.4005,5e-5 2.1008,0.67773 2.1008,2.03303 0.045,4.33717 0.1581,8.74206 0.3389,13.21468 0.1355,1.21985 0.6776,1.82976 1.6264,1.82972 l 16.1964,0 c 1.4005,4e-5 2.1008,0.67771 2.1008,2.03303 l 0,3.72722 c 0,1.40055 -0.6777,2.10082 -2.033,2.10079 l -15.451,0 c -1.0843,3e-5 -1.5813,0.6777 -1.4909,2.03303 0.271,2.48483 0.8132,5.60214 1.6264,9.35192 0.2711,1.0843 0.8358,0.99394 1.6942,-0.27107 1.3553,-2.2589 2.53,-4.51781 3.5239,-6.77675 0.7228,-1.58122 1.8071,-2.01042 3.2529,-1.28759 1.0842,0.45181 2.1685,0.97136 3.2528,1.55866 1.4457,0.72287 1.8071,1.87492 1.0843,3.45614 -2.0331,4.47268 -4.676,8.87757 -7.9288,13.21468 -0.7681,1.03911 -0.8133,2.25892 -0.1355,3.65945 l 1.2198,2.1008 c 0.8583,1.26499 1.6489,1.71677 2.3718,1.35535 1.1294,-1.17464 1.7394,-3.25284 1.8298,-6.23462 0.09,-1.35534 0.8357,-1.73936 2.2363,-1.15205 l 3.4561,1.35535 c 1.5812,0.6325 2.2589,1.67161 2.0331,3.11731 -0.7229,4.51784 -2.5301,7.95139 -5.4214,10.30067 -4.5631,3.02694 -8.855,0.92615 -12.8759,-6.30238 -0.6777,-0.99393 -1.7394,-0.92616 -3.185,0.2033 -2.7108,2.0782 -5.5119,3.88534 -8.4032,5.42141 -1.491,0.76802 -2.6204,0.54213 -3.3884,-0.67768 l -1.5587,-2.7107 c -0.8584,-1.40053 -0.5873,-2.48481 0.8132,-3.25284 3.298,-1.85232 6.5057,-4.15641 9.623,-6.9123 0.9939,-0.94874 1.2198,-2.14596 0.6777,-3.59168 -1.8072,-5.64728 -3.0496,-11.09127 -3.7272,-16.33199 -0.2259,-1.08425 -0.881,-1.62639 -1.9653,-1.62642 l -9.8263,0 c -1.1294,3e-5 -1.6942,0.54217 -1.6941,1.62642 l 0,5.0148 c -10e-5,1.0843 0.6776,1.53609 2.033,1.35536 l 4.7437,-0.88098 c 1.6264,-0.40659 2.53,0.11296 2.7107,1.55865 0.09,1.0843 0.2485,2.23635 0.4744,3.45615 0.09,1.35536 -0.5422,2.19116 -1.8975,2.5074 l -6.4379,1.42312 c -1.0843,0.27108 -1.6265,0.94875 -1.6264,2.03303 l 0,10.57174 c -0.09,1.71677 -0.5196,3.52391 -1.2876,5.42141 -0.7229,1.17462 -1.5361,1.92007 -2.4397,2.23633 -2.4848,1.03909 -6.325,1.08427 -11.5205,0.13553 -1.4005,-0.36144 -2.1911,-1.21982 -2.3718,-2.57517 -0.3163,-1.35535 -0.5648,-2.71071 -0.7455,-4.06605 -0.2259,-1.44571 0.3163,-1.98785 1.6265,-1.62642 3.3432,0.8132 5.9635,1.01651 7.861,0.6099 0.4969,-0.49696 0.7454,-1.26499 0.7454,-2.30409 l 0.068,-6.84453 c 0,-1.08427 -0.6777,-1.53606 -2.033,-1.35535 l -8.1321,1.21981 c -1.3554,0.13555 -2.1686,-0.47436 -2.4397,-1.82972 -0.3614,-1.40052 -0.655,-2.82364 -0.8809,-4.26936 -0.3163,-1.35533 0.4292,-2.10078 2.2363,-2.23633 l 9.4197,-1.28758 c 1.2198,-0.1807 1.8297,-0.76802 1.8297,-1.76196 l 0,-6.43792 c 0,-1.12943 -0.5421,-1.69416 -1.6264,-1.69419 l -10.1651,0 c -1.4006,3e-5 -2.1008,-0.67765 -2.1008,-2.03303 l 0,-3.72721 c 0,-1.4005 0.6776,-2.10076 2.033,-2.1008 l 10.1651,0 c 1.1295,4e-5 1.6942,-0.5421 1.6942,-1.62642 l 0,-3.52391 c 0,-1.08425 -0.6777,-1.6038 -2.033,-1.55866 l -4.2694,0.27107 c -1.536,0.13558 -2.5977,-0.56469 -3.185,-2.10079 -0.4067,-0.90353 -0.7455,-1.80709 -1.0166,-2.71071 -0.6325,-1.71673 -0.2485,-2.6203 1.1521,-2.7107 7.0478,-0.3162 14.0956,-0.88093 21.1435,-1.69419 1.6715,-0.18066 2.8688,0.45183 3.5917,1.89749 l 1.0842,2.16856 c 0.9036,1.76201 0.6325,2.73334 -0.8132,2.91401 l -5.9635,0.81321 c -1.0843,0.18076 -1.6265,0.81325 -1.6264,1.89749 l 0,4.26936 c -10e-5,1.1295 0.5421,1.69423 1.6264,1.69419 l 9.1486,0 c 1.0842,4e-5 1.6038,-0.67764 1.5587,-2.03303 -0.1808,-4.33708 -0.2937,-8.6742 -0.3389,-13.01137 m 16.8741,-0.2033 c 1.6716,-0.99388 3.0495,-0.85834 4.1339,0.4066 1.4456,2.03308 2.5525,3.88539 3.3206,5.55694 0.7228,1.44575 0.4517,2.55262 -0.8132,3.32061 l -3.2529,1.8975 c -1.4006,0.85842 -2.4397,0.60994 -3.1173,-0.74545 -0.8132,-1.76191 -1.8298,-3.54646 -3.0495,-5.35364 -1.1747,-1.53601 -1.0166,-2.75583 0.4743,-3.65945 l 2.3041,-1.42311" />
    </g>
  </g>
</svg>
