<?xml version="1.0" encoding="UTF-8" standalone="no"?>
<!-- Created with Inkscape (http://www.inkscape.org/) -->

<svg
   xmlns:dc="http://purl.org/dc/elements/1.1/"
   xmlns:cc="http://creativecommons.org/ns#"
   xmlns:rdf="http://www.w3.org/1999/02/22-rdf-syntax-ns#"
   xmlns:svg="http://www.w3.org/2000/svg"
   xmlns="http://www.w3.org/2000/svg"
   xmlns:sodipodi="http://sodipodi.sourceforge.net/DTD/sodipodi-0.dtd"
   xmlns:inkscape="http://www.inkscape.org/namespaces/inkscape"
   width="141.43034"
   height="144.73294"
   id="svg3166"
   version="1.1"
   inkscape:version="0.48.4 r9939"
   sodipodi:docname="jingjs.tshirt.svg"
   inkscape:export-filename="/home/troy/repo/jsconfcn/jsconfcn.github.com/images/t-shirts/jingjs.tshirt.png"
   inkscape:export-xdpi="96"
   inkscape:export-ydpi="96">
  <defs
     id="defs3168" />
  <sodipodi:namedview
     id="base"
     pagecolor="#ffffff"
     bordercolor="#666666"
     borderopacity="1.0"
     inkscape:pageopacity="0.0"
     inkscape:pageshadow="2"
     inkscape:zoom="2.8"
     inkscape:cx="165.84361"
     inkscape:cy="44.22518"
     inkscape:document-units="px"
     inkscape:current-layer="layer1"
     showgrid="false"
     showguides="false"
     inkscape:guide-bbox="true"
     inkscape:window-width="1920"
     inkscape:window-height="1056"
     inkscape:window-x="0"
     inkscape:window-y="24"
     inkscape:window-maximized="1"
     fit-margin-top="0"
     fit-margin-left="0"
     fit-margin-right="0"
     fit-margin-bottom="0">
    <sodipodi:guide
       orientation="0,1"
       position="-2236.1299,167.48111"
       id="guide3048" />
    <sodipodi:guide
       orientation="0,1"
       position="-2225.0182,102.83135"
       id="guide3050" />
    <sodipodi:guide
       orientation="1,0"
       position="-2291.1832,138.18669"
       id="guide3052" />
    <sodipodi:guide
       orientation="1,0"
       position="-2217.4421,181.11817"
       id="guide3057" />
    <sodipodi:guide
       orientation="1,0"
       position="-2150.0921,90.060886"
       id="guide3059" />
    <sodipodi:guide
       orientation="1,0"
       position="-2225.9849,111.13232"
       id="guide3061" />
    <sodipodi:guide
       orientation="0,1"
       position="-2160.8063,90.775176"
       id="guide3066" />
    <sodipodi:guide
       orientation="0,1"
       position="-1015.8656,193.99762"
       id="guide3094" />
    <sodipodi:guide
       orientation="1,0"
       position="-1120.4164,134.65116"
       id="guide3107" />
    <sodipodi:guide
       orientation="1,0"
       position="-979.24757,102.83135"
       id="guide3109" />
    <sodipodi:guide
       orientation="1,0"
       position="30.147367,102.83135"
       id="guide3122" />
    <sodipodi:guide
       orientation="1,0"
       position="1299.9091,159.39989"
       id="guide3135" />
    <sodipodi:guide
       orientation="0,1"
       position="2706.5465,215.7159"
       id="guide3916" />
    <sodipodi:guide
       orientation="1,0"
       position="2623.714,193.99762"
       id="guide3918" />
  </sodipodi:namedview>
  <metadata
     id="metadata3171">
    <rdf:RDF>
      <cc:Work
         rdf:about="">
        <dc:format>image/svg+xml</dc:format>
        <dc:type
           rdf:resource="http://purl.org/dc/dcmitype/StillImage" />
        <dc:title></dc:title>
      </cc:Work>
    </rdf:RDF>
  </metadata>
  <g
     inkscape:label="Layer 1"
     inkscape:groupmode="layer"
     id="layer1"
     transform="translate(-277.94916,-411.44013)">
    <g
       id="g3055"
       transform="translate(2291.4286,22.857143)">
      <path
         id="path5358-0-9-1-2-3"
         d="m -1984.3579,466.1095 c 2.2881,-1.15585 5.2131,-0.86688 7.6192,-0.15922 0.5956,1.6689 0.6723,3.45576 0.9081,5.19543 9.2409,0.62509 18.5231,-0.21231 27.764,0.45997 0.4659,2.55939 0.4659,5.18363 -0.018,7.74302 -4.2577,0.44818 -8.5391,0.22998 -12.8087,0.25947 -16.1347,0.0177 -32.2753,-0.0354 -48.41,0.0295 -1.203,-0.0295 -2.4355,-0.0767 -3.5678,-0.51896 -0.7725,-2.15836 -0.7843,-4.62339 -0.1769,-6.81715 0.7607,-1.2443 2.5181,-0.80201 3.7447,-0.96713 8.0084,-0.0531 16.0286,0.22998 24.0311,-0.13564 0.2889,-1.69839 0.3774,-3.44396 0.914,-5.08928 z"
         inkscape:connector-curvature="0"
         style="fill:#333333;fill-opacity:1" />
      <path
         id="path5360-8-3-2-5-1"
         d="m -1932.0269,465.44635 c -1.1028,0.0236 -2.219,0.0455 -3.2982,0.29318 -2.8247,0.54253 -4.4961,3.43883 -4.3487,6.18102 -0.047,17.70927 0.051,35.42805 -0.049,53.13731 0.047,2.12298 -0.062,4.52476 1.4658,6.20546 1.3446,1.6748 3.6023,2.02777 5.6191,2.02777 17.7211,-0.0236 35.4407,-0.0287 53.1618,0.0245 1.9048,-0.0413 4.0277,-0.18448 5.4725,-1.58801 1.5804,-1.35635 1.9482,-3.5273 1.9545,-5.49696 -0.018,-17.71516 -0.059,-35.42805 0,-53.13731 -0.018,-2.01095 -0.1331,-4.25013 -1.6369,-5.7657 -1.433,-1.64532 -3.7497,-1.86938 -5.7901,-1.88119 -17.5206,0.035 -35.0245,0.0531 -52.551,0 z m 37.5504,15.80683 c 2.8748,-0.0431 5.7863,0.72164 8.1599,2.22321 2.9722,1.85172 4.1516,5.37225 4.2754,8.72185 -1.7809,0.15922 -3.5938,0.45746 -5.3748,0.0977 -1.5333,-1.4625 -1.9755,-4.03531 -4.1044,-4.83732 -2.7481,-0.89049 -6.4641,-0.50213 -8.0622,2.19878 -0.9789,1.58045 -0.073,3.6023 1.4659,4.422 4.3462,2.56528 9.7074,3.17431 13.7057,6.37648 4.3463,3.5619 3.7987,11.07898 -0.6596,14.31653 -3.444,2.49452 -7.9653,2.99491 -12.0933,2.54082 -3.6917,-0.35383 -7.149,-2.63598 -8.7707,-5.98558 -0.9436,-1.91069 -1.0447,-4.07489 -1.2216,-6.1566 1.8458,-0.12974 3.7303,-0.37911 5.5703,-0.0489 1.2266,1.79275 1.4153,4.32342 3.2493,5.66798 2.6006,1.35635 5.9417,1.24262 8.4775,-0.21988 2.3412,-1.29149 2.7119,-5.34615 0.1466,-6.59636 -4.3934,-2.26451 -9.7041,-2.64946 -13.608,-5.86342 -3.7035,-2.98399 -4.0775,-9.04868 -0.9284,-12.55751 2.4182,-2.84944 6.0761,-4.24448 9.7724,-4.29984 z m -19.5692,0.80622 c 0.9922,0.007 1.9898,0.0232 2.9806,0.0733 0.2064,7.42457 0.027,14.85056 0.098,22.28102 0.035,4.2047 -0.8542,9.18433 -4.764,11.53141 -4.2755,2.47093 -10.8591,2.21063 -13.7547,-2.24765 -1.6925,-2.31759 -2.1027,-5.21808 -2.1499,-8.01335 1.8753,0.0118 3.7497,0.0278 5.6191,0.12216 0.519,1.63941 0.8138,3.45822 1.8812,4.86175 1.3858,1.45072 4.0968,1.43554 5.4237,-0.0977 1.3799,-1.49199 1.5054,-3.65366 1.588,-5.57025 0.088,-7.63687 -0.1854,-15.27937 0.098,-22.91623 0.9907,-0.0325 1.9884,-0.0318 2.9806,-0.0245 z"
         style="fill:#fd4646"
         inkscape:connector-curvature="0" />
      <path
         id="path5366-6-5-9-6-0"
         d="m -1998.9118,484.56182 c -2.0611,0.006 -4.1347,0.0737 -6.1811,0.34203 -0.5779,5.49619 -0.1516,11.03178 -0.2931,16.53975 0.059,2.26452 -0.3,4.62754 0.5374,6.79181 1.4154,0.54256 2.9359,0.49538 4.422,0.51305 3.9453,-0.0236 7.9038,-0.0497 11.849,-0.0733 1.3623,0.0354 2.8054,-0.0497 4.0556,0.61078 0.5484,3.44985 0.2055,6.97121 0.3176,10.45644 -0.1003,1.66891 0.2224,3.76235 -1.246,4.95948 -2.7717,0.50716 -5.5904,-0.28054 -8.3798,-0.26874 0.3538,2.7422 -0.1205,6.83645 3.005,8.08665 3.7211,1.0497 7.9813,1.22746 11.5314,-0.48862 2.2763,-1.08509 3.0261,-3.74718 3.2738,-6.05888 0.4953,-5.69668 -0.3185,-11.4471 0.513,-17.12609 5.8677,-0.28896 11.7226,-0.016 17.5903,-0.12215 0.973,-0.10616 2.1752,0.008 2.8828,-0.80623 0.4836,-1.50378 0.3859,-3.13388 0.4154,-4.69074 -0.089,-5.12466 0.023,-10.2424 -0.024,-15.36706 -0.1357,-0.97304 0.08,-2.34115 -0.9284,-2.90728 -1.3151,-0.45997 -2.7362,-0.35548 -4.1044,-0.3909 -11.0159,0.0708 -22.0391,7.8e-4 -33.0551,0.0245 -2.0581,0.0206 -4.1199,-0.0303 -6.181,-0.0245 z m 10.5541,7.94006 c 4.6316,-0.0218 9.2719,0.10552 13.9012,0.0245 3.7035,0 7.4186,-0.0741 11.1161,0.24431 0.3126,2.60656 0.2932,5.24168 -0.049,7.84233 -8.0084,0.38332 -16.0258,0.0648 -24.0401,0.17102 -3.0665,0.0177 -6.1439,0.0345 -9.2105,-0.19545 -0.2771,-2.59476 -0.2847,-5.19871 -0.049,-7.79347 2.7731,-0.19903 5.552,-0.28011 8.3309,-0.29317 z"
         style="fill:#333333;fill-opacity:1"
         inkscape:connector-curvature="0" />
      <path
         id="path5370-3-5-9-9-1"
         d="m -1963.4818,511.2407 c 2.5416,-0.82561 4.4169,1.71608 6.1684,3.12551 2.642,2.74219 5.9798,4.97132 7.861,8.34452 -0.4364,2.63604 -2.8897,4.46417 -4.9419,5.93846 -1.1617,0.87279 -2.3412,-0.22998 -3.155,-1.02021 -2.235,-2.3058 -4.2519,-4.81211 -6.5576,-7.04713 -1.5569,-1.62763 -3.3909,-3.05475 -4.5173,-5.04211 0.8138,-2.17605 3.1432,-3.37319 5.1424,-4.29904 z"
         inkscape:connector-curvature="0"
         style="fill:#333333;fill-opacity:1" />
      <path
         id="path5372-0-5-1-0-9"
         d="m -1999.4783,511.74196 c 1.5863,-0.76074 3.2788,0.46587 4.6883,1.14995 1.2915,0.69587 3.2316,2.02273 2.0994,3.69164 -2.3707,3.85087 -5.7852,6.97637 -9.2468,9.8424 -1.6335,1.13817 -3.3083,2.76579 -5.4254,2.69502 -2.0346,-0.8197 -3.385,-2.86014 -4.187,-4.818 -0.5957,-1.12047 0.513,-2.00505 1.2266,-2.70681 2.0109,-1.72788 4.1988,-3.24935 6.0328,-5.17184 1.6099,-1.55685 2.9309,-3.43806 4.8121,-4.68236 z"
         inkscape:connector-curvature="0"
         style="fill:#333333;fill-opacity:1" />
      <path
         d="m -1921.0441,389.95673 c 5.6444,7e-5 10.0794,3.26719 13.3048,9.80139 1.1678,2.58595 1.7795,4.56012 1.8352,5.92254 l 0.1251,0 c 0.9731,-4.50441 2.7388,-8.24423 5.2969,-11.21946 3.0029,-3.00291 6.3813,-4.5044 10.1351,-4.50447 5.8112,7e-5 10.4686,3.11426 13.9721,9.3426 0.8897,2.30789 1.3346,4.4767 1.3347,6.50646 -10e-5,6.95136 -2.8918,13.58293 -8.6753,19.89471 l -22.0635,26.48458 -0.2503,0 -23.4399,-28.73681 c -4.6713,-5.70006 -7.0069,-11.58089 -7.0069,-17.64248 0,-5.86688 2.7666,-10.52427 8.2999,-13.9722 2.3356,-1.25117 4.713,-1.87679 7.1321,-1.87686"
         style="font-size:85.01374054px;font-style:normal;font-variant:normal;font-weight:bold;font-stretch:normal;line-height:125%;letter-spacing:0px;word-spacing:0px;fill:#fd4646;fill-opacity:1;stroke:#fd4646;stroke-width:2.62210917;stroke-linecap:round;stroke-linejoin:round;stroke-miterlimit:4;stroke-opacity:1;font-family:Collator;-inkscape-font-specification:Collator Bold"
         id="path6322-8-6-4-3"
         inkscape:connector-curvature="0" />
      <g
         id="text3037"
         style="font-size:69.39400482px;font-style:normal;font-variant:normal;font-weight:normal;font-stretch:normal;line-height:125%;letter-spacing:0px;word-spacing:0px;fill:#333333;fill-opacity:1;stroke:none;font-family:HanWangHeiHeavy;-inkscape-font-specification:HanWangHeiHeavy"
         transform="matrix(1.0363771,0,0,1.0216223,58.324473,-11.258519)">
        <path
           inkscape:connector-curvature="0"
           id="path3064"
           d="m -1964.7118,393.41202 c 0,-1.3553 0.6777,-2.03298 2.033,-2.03303 l 3.9983,0 c 1.4005,5e-5 2.1008,0.67773 2.1008,2.03303 0.045,4.33717 0.1581,8.74206 0.3389,13.21468 0.1355,1.21985 0.6776,1.82976 1.6264,1.82972 l 16.1964,0 c 1.4005,4e-5 2.1008,0.67771 2.1008,2.03303 l 0,3.72722 c 0,1.40055 -0.6777,2.10082 -2.033,2.10079 l -15.451,0 c -1.0843,3e-5 -1.5813,0.6777 -1.4909,2.03303 0.271,2.48483 0.8132,5.60214 1.6264,9.35192 0.2711,1.0843 0.8358,0.99394 1.6942,-0.27107 1.3553,-2.2589 2.53,-4.51781 3.5239,-6.77675 0.7228,-1.58122 1.8071,-2.01042 3.2529,-1.28759 1.0842,0.45181 2.1685,0.97136 3.2528,1.55866 1.4457,0.72287 1.8071,1.87492 1.0843,3.45614 -2.0331,4.47268 -4.676,8.87757 -7.9288,13.21468 -0.7681,1.03911 -0.8133,2.25892 -0.1355,3.65945 l 1.2198,2.1008 c 0.8583,1.26499 1.6489,1.71677 2.3718,1.35535 1.1294,-1.17464 1.7394,-3.25284 1.8298,-6.23462 0.09,-1.35534 0.8357,-1.73936 2.2363,-1.15205 l 3.4561,1.35535 c 1.5812,0.6325 2.2589,1.67161 2.0331,3.11731 -0.7229,4.51784 -2.5301,7.95139 -5.4214,10.30067 -4.5631,3.02694 -8.855,0.92615 -12.8759,-6.30238 -0.6777,-0.99393 -1.7394,-0.92616 -3.185,0.2033 -2.7108,2.0782 -5.5119,3.88534 -8.4032,5.42141 -1.491,0.76802 -2.6204,0.54213 -3.3884,-0.67768 l -1.5587,-2.7107 c -0.8584,-1.40053 -0.5873,-2.48481 0.8132,-3.25284 3.298,-1.85232 6.5057,-4.15641 9.623,-6.9123 0.9939,-0.94874 1.2198,-2.14596 0.6777,-3.59168 -1.8072,-5.64728 -3.0496,-11.09127 -3.7272,-16.33199 -0.2259,-1.08425 -0.881,-1.62639 -1.9653,-1.62642 l -9.8263,0 c -1.1294,3e-5 -1.6942,0.54217 -1.6941,1.62642 l 0,5.0148 c -10e-5,1.0843 0.6776,1.53609 2.033,1.35536 l 4.7437,-0.88098 c 1.6264,-0.40659 2.53,0.11296 2.7107,1.55865 0.09,1.0843 0.2485,2.23635 0.4744,3.45615 0.09,1.35536 -0.5422,2.19116 -1.8975,2.5074 l -6.4379,1.42312 c -1.0843,0.27108 -1.6265,0.94875 -1.6264,2.03303 l 0,10.57174 c -0.09,1.71677 -0.5196,3.52391 -1.2876,5.42141 -0.7229,1.17462 -1.5361,1.92007 -2.4397,2.23633 -2.4848,1.03909 -6.325,1.08427 -11.5205,0.13553 -1.4005,-0.36144 -2.1911,-1.21982 -2.3718,-2.57517 -0.3163,-1.35535 -0.5648,-2.71071 -0.7455,-4.06605 -0.2259,-1.44571 0.3163,-1.98785 1.6265,-1.62642 3.3432,0.8132 5.9635,1.01651 7.861,0.6099 0.4969,-0.49696 0.7454,-1.26499 0.7454,-2.30409 l 0.068,-6.84453 c 0,-1.08427 -0.6777,-1.53606 -2.033,-1.35535 l -8.1321,1.21981 c -1.3554,0.13555 -2.1686,-0.47436 -2.4397,-1.82972 -0.3614,-1.40052 -0.655,-2.82364 -0.8809,-4.26936 -0.3163,-1.35533 0.4292,-2.10078 2.2363,-2.23633 l 9.4197,-1.28758 c 1.2198,-0.1807 1.8297,-0.76802 1.8297,-1.76196 l 0,-6.43792 c 0,-1.12943 -0.5421,-1.69416 -1.6264,-1.69419 l -10.1651,0 c -1.4006,3e-5 -2.1008,-0.67765 -2.1008,-2.03303 l 0,-3.72721 c 0,-1.4005 0.6776,-2.10076 2.033,-2.1008 l 10.1651,0 c 1.1295,4e-5 1.6942,-0.5421 1.6942,-1.62642 l 0,-3.52391 c 0,-1.08425 -0.6777,-1.6038 -2.033,-1.55866 l -4.2694,0.27107 c -1.536,0.13558 -2.5977,-0.56469 -3.185,-2.10079 -0.4067,-0.90353 -0.7455,-1.80709 -1.0166,-2.71071 -0.6325,-1.71673 -0.2485,-2.6203 1.1521,-2.7107 7.0478,-0.3162 14.0956,-0.88093 21.1435,-1.69419 1.6715,-0.18066 2.8688,0.45183 3.5917,1.89749 l 1.0842,2.16856 c 0.9036,1.76201 0.6325,2.73334 -0.8132,2.91401 l -5.9635,0.81321 c -1.0843,0.18076 -1.6265,0.81325 -1.6264,1.89749 l 0,4.26936 c -10e-5,1.1295 0.5421,1.69423 1.6264,1.69419 l 9.1486,0 c 1.0842,4e-5 1.6038,-0.67764 1.5587,-2.03303 -0.1808,-4.33708 -0.2937,-8.6742 -0.3389,-13.01137 m 16.8741,-0.2033 c 1.6716,-0.99388 3.0495,-0.85834 4.1339,0.4066 1.4456,2.03308 2.5525,3.88539 3.3206,5.55694 0.7228,1.44575 0.4517,2.55262 -0.8132,3.32061 l -3.2529,1.8975 c -1.4006,0.85842 -2.4397,0.60994 -3.1173,-0.74545 -0.8132,-1.76191 -1.8298,-3.54646 -3.0495,-5.35364 -1.1747,-1.53601 -1.0166,-2.75583 0.4743,-3.65945 l 2.3041,-1.42311" />
      </g>
    </g>
  </g>
</svg>
