<?xml version="1.0" encoding="UTF-8" standalone="no"?>
<svg
   xmlns:dc="http://purl.org/dc/elements/1.1/"
   xmlns:cc="http://creativecommons.org/ns#"
   xmlns:rdf="http://www.w3.org/1999/02/22-rdf-syntax-ns#"
   xmlns:svg="http://www.w3.org/2000/svg"
   xmlns="http://www.w3.org/2000/svg"
   xmlns:sodipodi="http://sodipodi.sourceforge.net/DTD/sodipodi-0.dtd"
   xmlns:inkscape="http://www.inkscape.org/namespaces/inkscape"
   version="1.1"
   viewBox="0 0 630 630"
   id="svg3572"
   inkscape:version="0.48.4 r9939"
   width="100%"
   height="100%"
   sodipodi:docname="jingjs.svg">
  <metadata
     id="metadata3582">
    <rdf:RDF>
      <cc:Work
         rdf:about="">
        <dc:format>image/svg+xml</dc:format>
        <dc:type
           rdf:resource="http://purl.org/dc/dcmitype/StillImage" />
        <dc:title></dc:title>
      </cc:Work>
    </rdf:RDF>
  </metadata>
  <defs
     id="defs3580" />
  <sodipodi:namedview
     pagecolor="#ffffff"
     bordercolor="#666666"
     borderopacity="1"
     objecttolerance="10"
     gridtolerance="10"
     guidetolerance="10"
     inkscape:pageopacity="0"
     inkscape:pageshadow="2"
     inkscape:window-width="1218"
     inkscape:window-height="716"
     id="namedview3578"
     showgrid="false"
     inkscape:zoom="0.45254834"
     inkscape:cx="314.61049"
     inkscape:cy="286.73662"
     inkscape:window-x="1"
     inkscape:window-y="24"
     inkscape:window-maximized="0"
     inkscape:current-layer="svg3572" />
  <!--
  DO WHAT THE FUCK YOU WANT TO PUBLIC LICENSE
  Version 2, December 2004

  Copyright (C) 2011 Christopher Williams <chris@iterativedesigns.com>,
                     Manuel Strehl <boldewyn@gmail.com>

  Everyone is permitted to copy and distribute verbatim or modified
  copies of this license document, and changing it is allowed as long
  as the name is changed.

  DO WHAT THE FUCK YOU WANT TO PUBLIC LICENSE
  TERMS AND CONDITIONS FOR COPYING, DISTRIBUTION AND MODIFICATION

  0. You just DO WHAT THE FUCK YOU WANT TO.
-->
  <rect
     style="fill:#de2910;fill-opacity:1"
     height="630"
     width="630"
     y="0"
     x="0"
     id="background" />
  <path
     style="fill:#000000;fill-opacity:1;stroke:none;stroke-opacity:1"
     id="path5133"
     d="m 465.28955,352.73438 28.78951,-17.42299 c 5.55413,9.84756 10.60666,18.17912 22.72558,18.17912 11.61656,0 18.94046,-4.54406 18.94046,-22.2195 l 0,-120.20384 35.3528,0 0,120.70394 c 0,36.61649 -21.46337,53.28335 -52.77803,53.28335 -28.28118,0 -44.69724,-14.64704 -53.03032,-32.32307"
     inkscape:connector-curvature="0" />
  <path
     inkscape:connector-curvature="0"
     d="m 457.28955,344.73438 28.78951,-17.42299 c 5.55413,9.84756 10.60666,18.17912 22.72558,18.17912 11.61656,0 18.94046,-4.54406 18.94046,-22.2195 l 0,-120.20384 35.3528,0 0,120.70394 c 0,36.61649 -21.46337,53.28335 -52.77803,53.28335 -28.28118,0 -44.69724,-14.64704 -53.03032,-32.32307"
     id="j"
     style="fill:#ffde00;fill-opacity:1;stroke:#ffde00;stroke-opacity:1" />
  <path
     style="fill:#000000;fill-opacity:1;stroke:none;stroke-opacity:1"
     id="path5135"
     d="m 457.73576,548.39031 28.78578,-16.66685 c 7.57768,12.37493 17.42597,21.4656 34.8497,21.4656 14.64855,0 23.98928,-7.32373 23.98928,-17.42522 0,-12.12115 -9.59527,-16.41457 -25.75756,-23.48319 l -8.83613,-3.79033 C 485.2601,497.6336 468.34019,483.99721 468.34019,455.2092 c 0,-26.51516 20.20192,-46.71858 51.76885,-46.71858 22.47479,0 38.63632,7.82924 50.2514,28.2842 l -27.5258,17.67602 c -6.06097,-10.85747 -12.625,-15.15014 -22.7256,-15.15014 -10.3536,0 -16.91988,6.56554 -16.91988,15.15014 0,10.60666 6.56628,14.90007 21.7164,21.46636 l 8.83763,3.78734 c 30.05097,12.87952 46.97086,26.00984 46.97086,55.55398 0,31.81996 -24.99991,49.24296 -58.58518,49.24296 -32.82841,0 -54.04098,-15.65546 -64.39311,-36.11117"
     inkscape:connector-curvature="0" />
  <path
     inkscape:connector-curvature="0"
     d="m 449.73576,540.39031 28.78578,-16.66685 c 7.57768,12.37493 17.42597,21.4656 34.8497,21.4656 14.64855,0 23.98928,-7.32373 23.98928,-17.42522 0,-12.12115 -9.59527,-16.41457 -25.75756,-23.48319 l -8.83613,-3.79033 C 477.2601,489.6336 460.34019,475.99721 460.34019,447.2092 c 0,-26.51516 20.20192,-46.71858 51.76885,-46.71858 22.47479,0 38.63632,7.82924 50.2514,28.2842 l -27.5258,17.67602 c -6.06097,-10.85747 -12.625,-15.15014 -22.7256,-15.15014 -10.3536,0 -16.91988,6.56554 -16.91988,15.15014 0,10.60666 6.56628,14.90007 21.7164,21.46636 l 8.83763,3.78734 c 30.05097,12.87952 46.97086,26.00984 46.97086,55.55398 0,31.81996 -24.99991,49.24296 -58.58518,49.24296 -32.82841,0 -54.04098,-15.65546 -64.39311,-36.11117"
     id="s"
     style="fill:#ffde00;fill-opacity:1;stroke:#ffde00;stroke-opacity:1" />
  <text
     xml:space="preserve"
     style="font-size:362.42056274px;font-style:normal;font-weight:normal;text-align:center;line-height:125%;letter-spacing:0px;word-spacing:0px;text-anchor:middle;fill:#000000;fill-opacity:1;stroke:none;font-family:Sans"
     x="399.383"
     y="432.95175"
     id="text5125"
     sodipodi:linespacing="125%"
     transform="scale(0.81414873,1.2282768)"><tspan
       sodipodi:role="line"
       id="tspan5127"
       x="399.383"
       y="432.95175"
       style="font-style:normal;font-variant:normal;font-weight:normal;font-stretch:normal;font-family:UnGungseo;-inkscape-font-specification:UnGungseo">京</tspan></text>
  <text
     transform="scale(0.81414873,1.2282768)"
     sodipodi:linespacing="125%"
     id="text5129"
     y="426.43857"
     x="389.55682"
     style="font-size:362.42056273999997984px;font-style:normal;font-weight:normal;text-align:center;line-height:125%;letter-spacing:0px;word-spacing:0px;text-anchor:middle;fill:#ffde00;fill-opacity:1;stroke:none;font-family:Sans"
     xml:space="preserve"><tspan
       style="font-style:normal;font-variant:normal;font-weight:normal;font-stretch:normal;font-family:UnGungseo;-inkscape-font-specification:UnGungseo;fill:#ffde00;fill-opacity:1"
       y="426.43857"
       x="389.55682"
       id="tspan5131"
       sodipodi:role="line">京</tspan></text>
</svg>
